<svg xmlns="http://www.w3.org/2000/svg" viewBox="0 0 900 700">
  <rect width="900" height="700" fill="#d9d6c5"/><circle cx="452" cy="346" r="225" fill="none" stroke="#9caa94" stroke-width="2"/><path d="M451 160c-63-74-167-74-224-11 26 147 91 204 224 209 133-5 198-62 224-209-57-63-161-63-224 11Z" fill="#173f35" opacity=".92"/><path d="M451 160v310M451 233c-57-70-114-76-164-62m164 62c57-70 114-76 164-62" fill="none" stroke="#e7ddd2" stroke-width="3"/><path d="M432 333c-38 52-28 100 19 145 47-45 57-93 19-145Z" fill="#bd7057"/><g fill="#f4f0e6"><circle cx="340" cy="253" r="14"/><circle cx="562" cy="253" r="14"/><circle cx="371" cy="309" r="10"/><circle cx="531" cy="309" r="10"/></g><path d="M117 574c111-75 186-110 282-103M783 574c-111-75-186-110-282-103" fill="none" stroke="#506b5e" stroke-width="2"/><g fill="#506b5e"><ellipse cx="214" cy="519" rx="54" ry="19" transform="rotate(-28 214 519)"/><ellipse cx="687" cy="519" rx="54" ry="19" transform="rotate(28 687 519)"/></g>
</svg>
