<svg xmlns="http://www.w3.org/2000/svg" viewBox="0 0 700 700">
  <rect width="700" height="700" fill="#e9ddd1"/><path d="M243 115h214l56 103-29 364H216l-29-364Z" fill="#f7f2e8" stroke="#173f35" stroke-width="3"/><path d="M244 115c13 67 200 67 213 0" fill="none" stroke="#173f35" stroke-width="3"/><g transform="translate(350 352)" fill="none" stroke="#173f35" stroke-width="3"><path d="M0 122C-6 50 4-26 60-117M2 71c-47-25-72-60-79-102M9 28c31-17 51-43 59-75"/><path d="M-62-27c-31-4-49-22-52-49 32-1 53 17 52 49Zm20 61c-34 2-56-14-68-42 34-8 59 7 68 42Zm57 32c31-7 54 4 67 30-30 13-54 4-67-30Zm13-79c28-6 47-24 51-51-30-2-50 17-51 51Z"/></g><circle cx="350" cy="478" r="7" fill="#bd7057"/><path d="M122 610h456" stroke="#bd7057" stroke-width="2"/>
</svg>
