<svg xmlns="http://www.w3.org/2000/svg" viewBox="0 0 700 700">
  <rect width="700" height="700" fill="#aab6a0"/><circle cx="350" cy="350" r="235" fill="#f4f0e6"/><g fill="#173f35" stroke="#173f35" stroke-linecap="round"><ellipse cx="350" cy="355" rx="80" ry="142"/><ellipse cx="350" cy="202" rx="44" ry="50"/><path d="M350 215v280M306 255c-82-65-117-81-144-74m232 74c82-65 117-81 144-74M286 330c-89-28-122-26-151-10m279 10c89-28 122-26 151-10M286 413c-89 30-110 52-128 88m256-88c89 30 110 52 128 88M329 166c-12-42-33-63-57-72m99 72c12-42 33-63 57-72" fill="none" stroke-width="7"/></g><path d="M350 218c-34 55-44 118-35 246m35-246c34 55 44 118 35 246" fill="none" stroke="#bd7057" stroke-width="4"/><g fill="#bd7057"><circle cx="350" cy="355" r="8"/><circle cx="350" cy="387" r="5"/></g>
</svg>
