<svg xmlns="http://www.w3.org/2000/svg" viewBox="0 0 1000 650">
  <rect width="1000" height="650" fill="#dfe5d7"/><path d="M0 455c186-58 315-40 472 38 170 84 334 91 528 13v144H0Z" fill="#173f35"/><path d="M0 513c194-72 320-36 468 34 167 79 347 75 532 4" fill="none" stroke="#bd7057" stroke-width="8"/><g fill="none" stroke="#173f35" stroke-width="3"><circle cx="250" cy="258" r="124"/><circle cx="250" cy="258" r="82"/><circle cx="250" cy="258" r="38"/><path d="M126 258h248M250 134v248"/></g><g fill="#173f35"><rect x="480" y="133" width="320" height="18"/><rect x="480" y="180" width="420" height="8" opacity=".5"/><rect x="480" y="206" width="380" height="8" opacity=".5"/><rect x="480" y="232" width="405" height="8" opacity=".5"/><rect x="480" y="299" width="94" height="94"/><rect x="596" y="265" width="94" height="128" opacity=".72"/><rect x="712" y="328" width="94" height="65" opacity=".45"/></g><circle cx="250" cy="258" r="13" fill="#bd7057"/>
</svg>
