<svg xmlns="http://www.w3.org/2000/svg" viewBox="0 0 700 700">
  <rect width="700" height="700" fill="#efe9dc"/><g fill="none" stroke="#173f35" stroke-width="2"><circle cx="132" cy="350" r="60"/><circle cx="350" cy="350" r="80"/><circle cx="568" cy="350" r="60"/><path d="M192 350h78m160 0h78"/><path d="m254 338 16 12-16 12m238-24 16 12-16 12"/></g><g fill="#bd7057"><circle cx="132" cy="350" r="23"/><circle cx="350" cy="350" r="10"/><circle cx="568" cy="350" r="23"/></g><g stroke="#8b9c8b" stroke-width="4"><path d="M323 293l54 114m0-114-54 114"/><path d="M325 309h50m-43 22h36m-36 38h36m-43 22h50"/></g><g fill="#173f35" font-family="Georgia" font-style="italic" font-size="18"><text x="105" y="455">sample</text><text x="315" y="470">analysis</text><text x="540" y="455">insight</text></g>
</svg>
