<svg xmlns="http://www.w3.org/2000/svg">
  <symbol id="service-publishable-illustrations" viewBox="0 0 48 48">
    <path d="M22 41V24" fill="none" stroke="currentColor" stroke-width="2.6" stroke-linecap="round" stroke-linejoin="round"/>
    <path d="M22 25c-8.5 0-14.5-5.4-15-14.2 8.8.4 14.4 5.9 15 14.2Z" fill="none" stroke="currentColor" stroke-width="2.6" stroke-linecap="round" stroke-linejoin="round"/>
    <path d="M23.8 23.2c.7-7.8 5.3-12.1 13-12.5-.3 8.1-4.7 12.8-12.5 13.3" fill="none" stroke="currentColor" stroke-width="2.6" stroke-linecap="round" stroke-linejoin="round"/>
  </symbol>

  <symbol id="service-journal-cover" viewBox="0 0 48 48">
    <path d="M13 6.5h22a2 2 0 0 1 2 2v31H13a2 2 0 0 1-2-2v-29a2 2 0 0 1 2-2Z" fill="none" stroke="currentColor" stroke-width="2.6" stroke-linecap="round" stroke-linejoin="round"/>
    <path d="M16 39.5c-2.8 0-5 0-5-3s2.2-3 5-3h21" fill="none" stroke="currentColor" stroke-width="2.6" stroke-linecap="round" stroke-linejoin="round"/>
    <path d="m22.5 15 1.4 2.8 3.1 1.2-3.1 1.3-1.4 2.8-1.4-2.8-3.1-1.3 3.1-1.2 1.4-2.8Z" fill="none" stroke="currentColor" stroke-width="2.2" stroke-linecap="round" stroke-linejoin="round"/>
    <path d="m31.5 23 1 2 2 .8-2 .8-1 2-1-2-2-.8 2-.8 1-2Z" fill="none" stroke="currentColor" stroke-width="2.2" stroke-linecap="round" stroke-linejoin="round"/>
  </symbol>

  <symbol id="service-graphical-abstracts" viewBox="0 0 48 48">
    <rect x="8" y="12" width="32" height="24" rx="3" fill="none" stroke="currentColor" stroke-width="2.6" stroke-linecap="round" stroke-linejoin="round"/>
    <path d="M14 22h7M27 22h7M14 28h20" fill="none" stroke="currentColor" stroke-width="2.6" stroke-linecap="round" stroke-linejoin="round"/>
  </symbol>

  <symbol id="service-lab-branding" viewBox="0 0 48 48">
    <path d="M19 6.5h10M22 7v12L13.2 33.8a6 6 0 0 0 5.1 9.2h11.4a6 6 0 0 0 5.1-9.2L26 19V7" fill="none" stroke="currentColor" stroke-width="2.6" stroke-linecap="round" stroke-linejoin="round"/>
    <path d="M16.8 33h14.4" fill="none" stroke="currentColor" stroke-width="2.6" stroke-linecap="round" stroke-linejoin="round"/>
  </symbol>

  <symbol id="service-infographics" viewBox="0 0 48 48">
    <rect x="8" y="8" width="12" height="12" rx="3" fill="none" stroke="currentColor" stroke-width="2.6" stroke-linecap="round" stroke-linejoin="round"/>
    <rect x="28" y="28" width="12" height="12" rx="3" fill="none" stroke="currentColor" stroke-width="2.6" stroke-linecap="round" stroke-linejoin="round"/>
    <path d="M20 14h7a7 7 0 0 1 7 7v7" fill="none" stroke="currentColor" stroke-width="2.6" stroke-linecap="round" stroke-linejoin="round"/>
  </symbol>

  <symbol id="service-study-species" viewBox="0 0 48 48">
    <path d="M10 32.5c2.2-7.4 8.2-12.1 14-12.1s11.8 4.7 14 12.1c-3.2 3.7-8.1 5.8-14 5.8s-10.8-2.1-14-5.8Z" fill="none" stroke="currentColor" stroke-width="2.6" stroke-linecap="round" stroke-linejoin="round"/>
    <path d="M16.2 21.8c.4-4.1 3.1-6.8 6.5-6.8M31.8 21.8c-.4-4.1-3.1-6.8-6.5-6.8" fill="none" stroke="currentColor" stroke-width="2.6" stroke-linecap="round" stroke-linejoin="round"/>
    <path d="M18.5 28.8h.1M29.4 28.8h.1M20.5 33.1c2.3 1.1 4.7 1.1 7 0" fill="none" stroke="currentColor" stroke-width="2.6" stroke-linecap="round" stroke-linejoin="round"/>
    <path d="M12.3 33.7 7.7 38M35.7 33.7l4.6 4.3" fill="none" stroke="currentColor" stroke-width="2.6" stroke-linecap="round" stroke-linejoin="round"/>
  </symbol>
</svg>
